<svg aria-hidden="true" style="position:absolute;width:0;height:0;overflow:hidden" xmlns="http://www.w3.org/2000/svg">
<defs>

<symbol id="icon1" viewBox="0 0 64 64">
<path d="M19.8334 8.16675L8.16675 19.8334M8.16675 8.16675L19.8334 19.8334" stroke="white" stroke-width="2" stroke-linecap="round" stroke-linejoin="round"/>
<g clip-path="url(#clip0_301_26)">
<path d="M40.3989 59.4284C42.7471 59.4284 44.6511 57.382 44.6511 54.8572C44.6511 52.3324 42.7471 50.2856 40.3989 50.2856C38.0502 50.2856 36.1462 52.3324 36.1462 54.8572C36.1462 57.382 38.0502 59.4284 40.3989 59.4284Z" fill="#1074D8"/>
<path d="M4.2525 41.1428V45.7144H14.0035L0 60.768L3.00651 64L17.01 48.9464V59.4284H21.2625V41.1428H4.2525Z" fill="#1074D8"/>
<path d="M40.3989 13.7143C42.7471 13.7143 44.6511 11.6676 44.6511 9.14281C44.6511 6.61809 42.7471 4.57141 40.3989 4.57141C38.0502 4.57141 36.1462 6.61809 36.1462 9.14281C36.1462 11.6676 38.0502 13.7143 40.3989 13.7143Z" fill="#1074D8"/>
<path d="M4.2525 36.5715C6.60108 36.5715 8.50497 34.5247 8.50497 32C8.50497 29.4753 6.60108 27.4286 4.2525 27.4286C1.90391 27.4286 0 29.4753 0 32C0 34.5247 1.90391 36.5715 4.2525 36.5715Z" fill="#1074D8"/>
<path d="M55.2826 22.8572C53.4021 22.8632 51.5766 23.5396 50.0923 24.7805C48.6076 26.0214 47.5479 27.7566 47.0794 29.7143H37.9706C37.6696 28.4253 37.1083 27.2232 36.327 26.1932C35.5456 25.1632 34.5632 24.3306 33.4492 23.7541C32.3352 23.1777 31.1169 22.8717 29.8806 22.8577C28.6444 22.8437 27.4204 23.1221 26.2953 23.6732L19.5403 14.5989C20.6515 13.0302 21.2563 11.1146 21.2625 9.14288C21.2625 7.33456 20.7637 5.56688 19.8292 4.06336C18.8946 2.55983 17.5663 1.38796 16.0123 0.695964C14.4582 0.00396135 12.7481 -0.177098 11.0983 0.175682C9.4485 0.52846 7.93308 1.39923 6.74361 2.67788C5.55418 3.95654 4.74417 5.58564 4.41598 7.35916C4.08783 9.13272 4.25624 10.971 4.89996 12.6417C5.54368 14.3123 6.6338 15.7402 8.03243 16.7449C9.43109 17.7495 11.0754 18.2857 12.7576 18.2857C13.9565 18.2827 15.141 18.0045 16.2318 17.4697L22.9848 26.544C21.8734 28.1126 21.2686 30.0282 21.2625 32C21.2558 34.225 22.0058 36.376 23.3713 38.0481C24.7369 39.7202 26.6238 40.798 28.6771 41.0788C30.7303 41.36 32.8083 40.8244 34.5199 39.5732C36.2315 38.3221 37.4586 36.4416 37.9706 34.2857H47.0794C47.4798 35.9373 48.3029 37.4351 49.4553 38.609C50.608 39.7829 52.0435 40.586 53.5989 40.9268C55.1546 41.268 56.768 41.1332 58.256 40.5376C59.744 39.9426 61.0471 38.9107 62.0168 37.5595C62.9868 36.2082 63.5848 34.5917 63.7429 32.8935C63.901 31.1952 63.613 29.4834 62.912 27.9522C62.2106 26.421 61.1237 25.1319 59.7753 24.2313C58.4268 23.3307 56.87 22.8546 55.2826 22.8572ZM12.7576 13.7143C11.9165 13.7143 11.0943 13.4462 10.395 12.9439C9.69568 12.4416 9.1506 11.7276 8.82874 10.8923C8.50688 10.057 8.42268 9.1378 8.58677 8.251C8.75086 7.36424 9.15585 6.54968 9.75056 5.91036C10.3453 5.27104 11.103 4.83568 11.9279 4.65928C12.7528 4.48288 13.6079 4.5734 14.3849 4.9194C15.162 5.2654 15.8261 5.85136 16.2934 6.60312C16.7606 7.35488 17.01 8.23872 17.01 9.14288C17.0089 10.3549 16.5605 11.517 15.7633 12.374C14.966 13.231 13.885 13.7131 12.7576 13.7143ZM29.7675 36.5714C28.9264 36.5714 28.1043 36.3033 27.405 35.801C26.7057 35.2987 26.1606 34.5847 25.8387 33.7494C25.5168 32.9141 25.4326 31.9949 25.5967 31.1082C25.7608 30.2214 26.1658 29.4068 26.7605 28.7675C27.3552 28.1282 28.113 27.6928 28.9379 27.5164C29.7628 27.34 30.6178 27.4306 31.3949 27.7766C32.1719 28.1226 32.8361 28.7085 33.3033 29.4602C33.7706 30.212 34.02 31.0959 34.02 32C34.0189 33.212 33.5705 34.3741 32.7732 35.2312C31.976 36.0882 30.895 36.5702 29.7675 36.5714ZM55.2826 36.5714C54.4413 36.5714 53.6194 36.3033 52.9198 35.801C52.2207 35.2987 51.6755 34.5847 51.3537 33.7494C51.0318 32.9141 50.9477 31.9949 51.1118 31.1082C51.2759 30.2214 51.6808 29.4068 52.2754 28.7675C52.8703 28.1282 53.6279 27.6928 54.4528 27.5164C55.2778 27.34 56.1329 27.4306 56.9098 27.7766C57.6867 28.1226 58.3509 28.7085 58.8182 29.4602C59.2856 30.212 59.5349 31.0959 59.5349 32C59.5338 33.212 59.0854 34.3741 58.288 35.2312C57.491 36.0882 56.4101 36.5702 55.2826 36.5714Z" fill="#1074D8"/>
</g>
<defs>
<clipPath id="clip0_301_26">
<rect width="64" height="64" fill="white"/>
</clipPath>
  </defs>
</symbol>

<symbol id="icon2" viewBox="0 0 64 64">
<path d="M55.5433 14.4749L41.3623 1.13212C40.5864 0.402124 39.5601 0 38.4724 0H4.12457C1.85032 0 0 1.7725 0 3.95138V60.0484C0 62.2276 1.85019 64 4.12457 64H52.6531C54.9275 64 56.8889 62.2276 56.8889 60.0484V17.294C56.8889 16.2408 56.3276 15.2132 55.5433 14.4749ZM51.8996 18.3565H38.192V4.67336L51.8996 18.3565ZM4.87822 59.3264V4.67352H33.3136V18.1866C33.3136 20.8574 35.5818 23.03 38.3694 23.03H51.8992V59.3268H4.87822V59.3264ZM22.1775 29.2846L14.9771 38.6894L22.0907 48.3568L18.1036 51.0492L8.96874 38.6354L18.2437 26.5208L22.1775 29.2846ZM38.8285 26.5061L48.2762 38.6462L38.8226 51.0788L34.8795 48.3272L42.2163 38.6785L34.9176 29.2994L38.8285 26.5061ZM28.7042 22.443L33.517 23.2055L28.0628 54.8028L23.2498 54.04L28.7042 22.443Z" fill="#1074D8"/>

</symbol>


<symbol id="icon3" viewBox="0 0 64 64">
<g clip-path="url(#clip0_301_492)">
<path d="M4.5913 25.44C1.83795 28.2071 0.207689 31.907 0.0185187 35.818C-0.170651 39.7291 1.09484 43.5708 3.56814 46.5936C6.04144 49.6168 9.54518 51.6044 13.3959 52.1688C17.2466 52.7328 21.1682 51.8336 24.3956 49.646L37.9184 63.2564C38.355 63.706 38.9454 63.9708 39.5694 63.9976C40.1936 64.0248 40.8042 63.8112 41.2772 63.4012C41.7507 62.9908 42.0508 62.4148 42.1168 61.7896C42.1828 61.1648 42.0098 60.538 41.6326 60.0368L41.3945 59.7588L27.9955 46.2728C30.446 43.1116 31.6062 39.1286 31.2396 35.1362C30.8731 31.1437 29.0074 27.4422 26.0228 24.7858C23.0382 22.1295 19.1594 20.7184 15.1767 20.8399C11.194 20.9615 7.40722 22.6066 4.58812 25.44H4.5913ZM31.8687 0C16.7573 0 4.11154 10.6115 0.886535 24.8326C2.7707 22.4266 5.20773 20.5174 7.98788 19.2695C11.0072 13.5366 15.9599 9.07568 21.9554 6.68852L21.6155 7.24484C19.9061 10.0999 18.5303 13.6744 17.5643 17.7316C19.1498 17.8915 20.7131 18.256 22.2192 18.8187C24.2272 10.4164 28.0114 4.799 31.8687 4.799L32.2341 4.81496C36.2566 5.18584 40.1391 11.5866 41.9438 20.7882H26.0669C27.9851 22.0702 29.6542 23.6945 30.9918 25.5807L42.6653 25.5839C43.2239 30.9083 43.0799 36.2836 42.2364 41.57H33.8291C33.5807 42.49 33.2631 43.39 32.8791 44.262L32.4692 45.1316L32.0816 45.8636L32.5836 46.3656H41.21C40.5653 48.7604 39.7802 50.8992 38.8843 52.712L42.3982 56.2512C43.9616 53.5084 45.2293 50.1512 46.1412 46.372L54.7931 46.3656C51.9501 50.9444 47.8211 54.5716 42.9289 56.7884L43.644 57.5016L44.0411 57.9492C44.74 58.8956 45.1371 59.9472 45.242 60.996C50.7405 58.4288 55.3942 54.3328 58.655 49.1916C61.9158 44.05 63.647 38.0775 63.6454 31.9783C63.6454 14.317 49.4171 0 31.8687 0ZM23.2518 28.9346C24.2559 29.9365 25.0535 31.1282 25.5987 32.4411C26.1439 33.754 26.4262 35.1623 26.4291 36.5852C26.432 38.0082 26.1557 39.4177 25.6159 40.7328C25.0762 42.048 24.2835 43.2432 23.2836 44.2492C22.2837 45.2552 21.0961 46.0528 19.7891 46.596C18.4821 47.1392 17.0814 47.4172 15.6673 47.4144C14.2532 47.4112 12.8536 47.1272 11.5488 46.5788C10.2441 46.03 9.05986 45.2276 8.06412 44.2172C6.06402 42.1876 4.94442 39.4435 4.95038 36.5852C4.9563 33.727 6.08731 30.9876 8.09584 28.9665C10.1044 26.9454 12.8268 25.8074 15.6673 25.8014C18.5077 25.7954 21.2349 26.922 23.2518 28.9346ZM47.4566 25.5839L58.1263 25.5807L58.1517 25.6766C58.6284 27.7005 58.8824 29.8074 58.8824 31.9751C58.8856 35.2513 58.2988 38.501 57.1508 41.5668L47.0658 41.5732C47.5202 38.5358 47.7587 35.313 47.7587 31.9783C47.7587 29.7914 47.6569 27.6525 47.4566 25.5839ZM41.7789 6.68532L41.852 6.71092C48.3562 9.3238 53.6034 14.3686 56.4929 20.7882H46.8055C45.8109 15.1835 44.0729 10.3078 41.7789 6.68852V6.68532Z" fill="#1074D8"/>
</g>
<defs>
<clipPath id="clip0_301_492">
<rect width="64" height="64" fill="white"/>
</clipPath>
</defs>
</symbol>


<symbol id="icon4" viewBox="0 0 64 64">
<g clip-path="url(#clip0_58_557)">
<path d="M40.625 0H9.375C6.88859 0 4.50402 0.94821 2.74587 2.63604C0.987719 4.32386 0 6.61305 0 9V51C0 53.3869 0.987719 55.6762 2.74587 57.3641C4.50402 59.0516 6.88859 60 9.375 60H40.625C43.1113 60 45.4961 59.0516 47.2543 57.3641C49.0121 55.6762 50 53.3869 50 51V9C50 6.61305 49.0121 4.32386 47.2543 2.63604C45.4961 0.94821 43.1113 0 40.625 0ZM43.75 51C43.75 51.7957 43.4207 52.5589 42.8348 53.1214C42.2488 53.6839 41.4539 54 40.625 54H9.375C8.54621 54 7.75133 53.6839 7.16527 53.1214C6.57926 52.5589 6.25 51.7957 6.25 51V9C6.25 8.20436 6.57926 7.44127 7.16527 6.87866C7.75133 6.31609 8.54621 6 9.375 6H40.625C41.4539 6 42.2488 6.31609 42.8348 6.87866C43.4207 7.44127 43.75 8.20436 43.75 9V51Z" fill="#1074D8"/>
<path d="M25 48C27.5888 48 29.6875 45.9851 29.6875 43.5C29.6875 41.0149 27.5888 39 25 39C22.4112 39 20.3125 41.0149 20.3125 43.5C20.3125 45.9851 22.4112 48 25 48Z" fill="#1074D8"/>
<path d="M32.8125 12H17.1875C16.3587 12 15.5638 12.3161 14.9778 12.8787C14.3918 13.4413 14.0625 14.2044 14.0625 15C14.0625 15.7956 14.3918 16.5587 14.9778 17.1213C15.5638 17.6839 16.3587 18 17.1875 18H32.8125C33.6413 18 34.4362 17.6839 35.0222 17.1213C35.6082 16.5587 35.9375 15.7956 35.9375 15C35.9375 14.2044 35.6082 13.4413 35.0222 12.8787C34.4362 12.3161 33.6413 12 32.8125 12Z" fill="#1074D8"/>
</g>
<defs>
<clipPath id="clip0_58_557">
<rect width="50" height="60" fill="white"/>
</clipPath>
</defs>
</symbol>


<symbol id="icon5" viewBox="0 0 64 64">
<g clip-path="url(#clip0_301_245)">
<path d="M14.519 12.3836C18.774 8.40816 24.0265 5.98736 29.5621 5.45048V11.5552C29.5621 12.2624 29.8146 12.9406 30.2641 13.4407C30.7136 13.9408 31.3233 14.2218 31.959 14.2218C32.5947 14.2218 33.2044 13.9408 33.6539 13.4407C34.1034 12.9406 34.3559 12.2624 34.3559 11.5552V5.45048C40.8442 6.0916 46.9095 9.30448 51.447 14.5037C55.9842 19.703 58.692 26.5427 59.0763 33.7766H53.5313C52.8956 33.7766 52.2858 34.0576 51.8364 34.5577C51.387 35.0578 51.1342 35.736 51.1342 36.4432C51.1342 37.1504 51.387 37.8287 51.8364 38.3288C52.2858 38.8289 52.8956 39.1098 53.5313 39.1098H58.9451C58.1142 47.33 54.3975 54.2132 48.8205 59.262C48.3272 59.7088 48.0137 60.3556 47.9489 61.0596C47.8842 61.764 48.0737 62.4676 48.4753 63.0164C48.8773 63.5652 49.4583 63.914 50.0915 63.986C50.7243 64.058 51.3571 63.8476 51.8504 63.4004C58.9645 56.9544 63.5793 47.778 63.899 36.7881C63.9202 36.6042 63.9245 36.4183 63.9116 36.2334L63.918 35.5544C63.918 15.9177 49.6101 0 31.959 0C14.308 0 0 15.9177 0 35.5544C0 47.1168 4.86734 56.7236 12.0485 63.3792C12.5387 63.812 13.1616 64.014 13.784 63.9428C14.4065 63.8716 14.9792 63.5324 15.3797 62.9976C15.7804 62.4628 15.9771 61.7748 15.9279 61.0808C15.8787 60.3868 15.5876 59.7416 15.1166 59.2832C9.6516 54.2132 5.83892 47.312 4.9792 39.1098H10.3867C11.0224 39.1098 11.632 38.8289 12.0815 38.3288C12.5311 37.8287 12.7836 37.1504 12.7836 36.4432C12.7836 35.736 12.5311 35.0578 12.0815 34.5577C11.632 34.0576 11.0224 33.7766 10.3867 33.7766H4.83858C5.19015 27.0853 7.49436 20.9771 11.1313 16.1524L15.0847 20.5504C15.539 21.0214 16.14 21.2779 16.761 21.2657C17.3819 21.2535 17.9744 20.9736 18.4136 20.4851C18.8527 19.9965 19.1043 19.3374 19.1152 18.6466C19.1262 17.9558 18.8957 17.2872 18.4723 16.7817L14.519 12.3836ZM47.1716 16.4759C46.8002 16.1577 46.3421 15.9896 45.8736 15.9993C45.4048 16.009 44.9528 16.1959 44.5925 16.5292L43.8957 17.1799C41.3828 19.5275 38.8782 21.8859 36.3822 24.2552C34.2856 26.2462 32.1412 28.3084 30.4282 29.9901C29.6864 30.7153 28.9524 31.4501 28.2262 32.1945C27.7522 32.6668 27.3039 33.1702 26.8839 33.702C26.3882 34.3808 26.0202 35.1635 25.8015 36.0036C25.5829 36.8437 25.5182 37.7241 25.6112 38.5926C25.7042 39.461 25.953 40.3 26.3429 41.0592C26.7328 41.8188 27.2559 42.4832 27.881 43.0136C29.1542 44.1056 30.7598 44.6032 32.3571 44.4C33.9543 44.1968 35.4176 43.3092 36.4365 41.9256C36.7177 41.5416 37.0916 40.8732 37.4752 40.1588C37.884 39.3942 38.386 38.4165 38.9422 37.3214C40.0511 35.117 41.3965 32.3722 42.6974 29.695C44.242 26.5057 45.7751 23.3093 47.296 20.106L47.7149 19.2207C47.9299 18.7654 47.9935 18.2402 47.8939 17.7378C47.7943 17.2355 47.5387 16.7885 47.1716 16.4759Z" fill="#1074D8"/>
</g>
<defs>
<clipPath id="clip0_301_245">
<rect width="64" height="64" fill="white"/>
</clipPath>
</defs></symbol>


<symbol id="icon6" viewBox="0 0 64 64">
<g clip-path="url(#clip0_301_18)">
<path d="M60.6461 1.5801L62.4012 3.31644C64.8199 5.712 64.4541 9.95868 61.5769 12.8016L25.38 48.6084L13.6524 52.852C12.1798 53.3876 10.7458 52.6932 10.4542 51.3072C10.3557 50.8044 10.4021 50.284 10.5881 49.806L14.9614 38.105L51.0574 2.39529C53.9342 -0.447591 58.227 -0.812519 60.6461 1.58304V1.5801ZM23.8002 5.14108C24.1909 5.14108 24.5777 5.2172 24.9387 5.36508C25.2996 5.51296 25.6276 5.72976 25.9039 6.00304C26.1801 6.27632 26.3993 6.60072 26.5488 6.9578C26.6983 7.31484 26.7753 7.69752 26.7753 8.084C26.7753 8.47048 26.6983 8.85316 26.5488 9.21024C26.3993 9.56728 26.1801 9.89172 25.9039 10.165C25.6276 10.4383 25.2996 10.655 24.9387 10.8029C24.5777 10.9508 24.1909 11.027 23.8002 11.027H11.9001C10.3221 11.027 8.80863 11.6471 7.6928 12.7509C6.57693 13.8547 5.95006 15.3518 5.95006 16.9128V52.2284C5.95006 53.7892 6.57693 55.2864 7.6928 56.39C8.80863 57.494 10.3221 58.114 11.9001 58.114H47.6006C49.1783 58.114 50.6921 57.494 51.8076 56.39C52.9235 55.2864 53.5506 53.7892 53.5506 52.2284V40.4564C53.5506 39.6759 53.8641 38.9274 54.4219 38.3754C54.9797 37.8235 55.7363 37.5135 56.5254 37.5135C57.3144 37.5135 58.0711 37.8235 58.6293 38.3754C59.187 38.9274 59.5006 39.6759 59.5006 40.4564V52.2284C59.5006 55.3504 58.2469 58.3444 56.015 60.552C53.7835 62.7596 50.7565 64 47.6006 64H11.9001C8.74402 64 5.71714 62.7596 3.48546 60.552C1.25376 58.3444 0 55.3504 0 52.2284V16.9128C0 13.7908 1.25376 10.7966 3.48546 8.58896C5.71714 6.38132 8.74402 5.14108 11.9001 5.14108H23.8002Z" fill="#1074D8"/>
</g>
<defs>
<clipPath id="clip0_301_18">
<rect width="64" height="64" fill="white"/>
</clipPath>
</defs></symbol>





<symbol id="achiev1" viewBox="0 0 64 64">
<g clip-path="url(#clip0_58_625)">
<path d="M20.5714 10.2857H30.8571V5.14284H20.5714V10.2857ZM41.143 54C37.5857 54 34.554 52.7468 32.0477 50.2404C29.5397 47.7325 28.2857 44.7 28.2857 41.143C28.2857 37.5857 29.5397 34.5531 32.0477 32.0451C34.554 29.5388 37.5857 28.2857 41.143 28.2857C44.7 28.2857 47.7325 29.5388 50.2404 32.0451C52.7468 34.5531 54 37.5857 54 41.143C54 44.7 52.7468 47.7325 50.2404 50.2404C47.7325 52.7468 44.7 54 41.143 54ZM45.3858 47.1856L47.1856 45.3858L42.4286 40.6284V33.4286H39.857V41.6571L45.3858 47.1856ZM24.8786 48.8573H5.14284C3.72857 48.8573 2.51829 48.3539 1.512 47.3476C0.504001 46.3397 0 45.1286 0 43.7142V15.4286C0 14.0143 0.504001 12.804 1.512 11.7977C2.51829 10.7897 3.72857 10.2857 5.14284 10.2857H15.4286V5.14284C15.4286 3.72857 15.9326 2.51743 16.9406 1.50943C17.9469 0.503141 19.1572 0 20.5714 0H30.8571C32.2714 0 33.4826 0.503141 34.4906 1.50943C35.4969 2.51743 36 3.72857 36 5.14284V10.2857H46.2857C47.7001 10.2857 48.9113 10.7897 49.9191 11.7977C50.9255 12.804 51.4284 14.0143 51.4284 15.4286V26.4214C49.9284 25.35 48.2999 24.5357 46.543 23.9786C44.7857 23.4214 42.9855 23.1429 41.143 23.1429C36.1286 23.1429 31.8754 24.8889 28.3834 28.3809C24.8897 31.8746 23.1429 36.1286 23.1429 41.143C23.1429 42.5142 23.2826 43.843 23.562 45.1286C23.8397 46.4142 24.2786 47.6573 24.8786 48.8573Z" fill="#1074D8"/>
</g>
<defs>
<clipPath id="clip0_58_625">
<rect width="54" height="54" fill="white"/>
</clipPath>
</defs></symbol>

<symbol id="achiev2" viewBox="0 0 64 64">
<g clip-path="url(#clip0_58_631)">
<path d="M44.8 9.53006H51.2V53.9991H12.8V9.53006H19.2V6.3537C19.2 4.66884 19.8743 3.05301 21.0745 1.86164C22.2748 0.670279 23.9026 0.000976562 25.6 0.000976562H38.4C40.0974 0.000976562 41.7253 0.670279 42.9254 1.86164C44.1259 3.05301 44.8 4.66884 44.8 6.3537V9.53006ZM54.4 9.53006H57.6C59.2974 9.53006 60.9253 10.1994 62.1254 11.3907C63.3259 12.5821 64 14.1979 64 15.8828V47.6462C64 49.3313 63.3259 50.947 62.1254 52.1384C60.9253 53.3299 59.2974 53.9991 57.6 53.9991H54.4V9.53006ZM9.6 9.53006V53.9991H6.4C4.7026 53.9991 3.07475 53.3299 1.87452 52.1384C0.674285 50.947 0 49.3313 0 47.6462V15.8828C0 12.3888 2.88 9.53006 6.4 9.53006H9.6ZM25.6 6.3537V9.53006H38.4V6.3537H25.6Z" fill="#1074D8"/>
</g>
<defs>
<clipPath id="clip0_58_631">
<rect width="64" height="54" fill="white"/>
</clipPath>
</defs></symbol>

<symbol id="achiev3" viewBox="0 0 64 64">
<g clip-path="url(#clip0_58_637)">
<path d="M27 0C12.1122 0 0 12.1122 0 27C0 41.8878 12.1122 54 27 54C41.8878 54 54 41.8878 54 27C54 12.1122 41.8878 0 27 0ZM27 48.6C15.0903 48.6 5.4 38.9097 5.4 27C5.4 15.0903 15.0903 5.4 27 5.4C38.9097 5.4 48.6 15.0903 48.6 27C48.6 38.9097 38.9097 48.6 27 48.6Z" fill="#1074D8"/>
<path d="M17.55 27C19.7868 27 21.6 25.1868 21.6 22.95C21.6 20.7133 19.7868 18.9 17.55 18.9C15.3132 18.9 13.5 20.7133 13.5 22.95C13.5 25.1868 15.3132 27 17.55 27Z" fill="#1074D8"/>
<path d="M36.4311 26.9622C38.6575 26.9622 40.4622 25.1574 40.4622 22.9311C40.4622 20.7048 38.6575 18.9 36.4311 18.9C34.2048 18.9 32.4 20.7048 32.4 22.9311C32.4 25.1574 34.2048 26.9622 36.4311 26.9622Z" fill="#1074D8"/>
<path d="M27 43.2C37.8 43.2 40.5 32.4 40.5 32.4H13.5C13.5 32.4 16.2 43.2 27 43.2Z" fill="#1074D8"/>
</g>
<defs>
<clipPath id="clip0_58_637">
<rect width="54" height="54" fill="white"/>
</clipPath>
</defs></symbol>

<symbol id="achiev4" viewBox="0 0 64 64">
<g clip-path="url(#clip0_58_646)">
<path d="M22.1375 6.7506C22.1375 10.475 19.1176 13.5004 15.4 13.5004C11.6824 13.5004 8.6625 10.475 8.6625 6.7506C8.6625 3.02615 11.6824 0.000793457 15.4 0.000793457C19.1176 0.000793457 22.1375 3.02615 22.1375 6.7506ZM7.7 25.7585C6.49687 27.1085 5.775 28.9044 5.775 30.857C5.775 32.8097 6.49687 34.6056 7.7 35.9555V25.7585ZM25.0731 19.8163C21.4998 22.9863 19.25 27.6268 19.25 32.7855C19.25 36.9198 20.6937 40.7164 23.1 43.6936V46.2852C23.1 48.4185 21.3796 50.1422 19.25 50.1422H11.55C9.42045 50.1422 7.7 48.4185 7.7 46.2852V43.0549C3.15219 40.8853 0 36.2448 0 30.857C0 23.3961 6.02764 17.3574 13.475 17.3574H17.325C20.2125 17.3574 22.8834 18.2614 25.0731 19.8043V19.8163ZM53.9 46.2852V43.6936C56.3062 40.7164 57.75 36.9198 57.75 32.7855C57.75 27.6268 55.5001 22.9863 51.9269 19.8043C54.1168 18.2614 56.7875 17.3574 59.675 17.3574H63.525C70.9724 17.3574 77 23.3961 77 30.857C77 36.2448 73.8476 40.8853 69.3 43.0549V46.2852C69.3 48.4185 67.5794 50.1422 65.45 50.1422H57.75C55.6206 50.1422 53.9 48.4185 53.9 46.2852ZM68.3375 6.7506C68.3375 10.475 65.3176 13.5004 61.6 13.5004C57.8824 13.5004 54.8625 10.475 54.8625 6.7506C54.8625 3.02615 57.8824 0.000793457 61.6 0.000793457C65.3176 0.000793457 68.3375 3.02615 68.3375 6.7506ZM69.3 25.7585V35.9676C70.5031 34.6056 71.225 32.8217 71.225 30.8691C71.225 28.9165 70.5031 27.1205 69.3 25.7706V25.7585ZM38.5 15.4289C34.253 15.4289 30.8 11.9696 30.8 7.71485C30.8 3.46007 34.253 0.000793457 38.5 0.000793457C42.7469 0.000793457 46.2 3.46007 46.2 7.71485C46.2 11.9696 42.7469 15.4289 38.5 15.4289ZM28.875 32.7855C28.875 34.7382 29.5969 36.522 30.8 37.884V27.6871C29.5969 29.0491 28.875 30.8329 28.875 32.7855ZM46.2 27.6871V37.8961C47.4031 36.5341 48.125 34.7502 48.125 32.7976C48.125 30.845 47.4031 29.049 46.2 27.6991V27.6871ZM53.9 32.7855C53.9 38.1734 50.7476 42.8138 46.2 44.9834V50.1422C46.2 52.2755 44.4794 53.9992 42.35 53.9992H34.65C32.5204 53.9992 30.8 52.2755 30.8 50.1422V44.9834C26.2522 42.8138 23.1 38.1734 23.1 32.7855C23.1 25.3246 29.1276 19.2859 36.575 19.2859H40.425C47.8724 19.2859 53.9 25.3246 53.9 32.7855Z" fill="#1074D8"/>
</g>
<defs>
<clipPath id="clip0_58_646">
<rect width="77" height="54" fill="white"/>
</clipPath>
</defs></symbol>

<symbol id="achiev1" viewBox="0 0 64 64">
<path stroke-linejoin="round" stroke-linecap="round" stroke-width="2.286" d="M4 16h24M4 8h24M4 24h24"/>
</symbol>

<symbol id="globus" viewBox="0 0 36 36">
<path fill-rule="evenodd" clip-rule="evenodd" d="M18 4.5C10.5442 4.5 4.5 10.5442 4.5 18C4.5 25.4558 10.5442 31.5 18 31.5C25.4558 31.5 31.5 25.4558 31.5 18C31.5 10.5442 25.4558 4.5 18 4.5ZM1.5 18C1.5 8.8873 8.8873 1.5 18 1.5C27.1127 1.5 34.5 8.8873 34.5 18C34.5 27.1127 27.1127 34.5 18 34.5C8.8873 34.5 1.5 27.1127 1.5 18Z" fill="#333333"/>
<path fill-rule="evenodd" clip-rule="evenodd" d="M1.5 18C1.5 17.1716 2.17157 16.5 3 16.5H33C33.8284 16.5 34.5 17.1716 34.5 18C34.5 18.8284 33.8284 19.5 33 19.5H3C2.17157 19.5 1.5 18.8284 1.5 18Z" fill="#333333"/>
<path fill-rule="evenodd" clip-rule="evenodd" d="M18 1.5C18.4214 1.5 18.8233 1.67724 19.1075 1.98837C23.1047 6.36436 25.3762 12.0433 25.4997 17.9688C25.5001 17.9896 25.5001 18.0104 25.4997 18.0312C25.3762 23.9567 23.1047 29.6356 19.1075 34.0116C18.8233 34.3228 18.4214 34.5 18 34.5C17.5786 34.5 17.1767 34.3228 16.8925 34.0116C12.8953 29.6356 10.6238 23.9567 10.5003 18.0312C10.4999 18.0104 10.4999 17.9896 10.5003 17.9688C10.6238 12.0433 12.8953 6.36436 16.8925 1.98837C17.1767 1.67724 17.5786 1.5 18 1.5ZM13.5003 18C13.6032 22.6123 15.1894 27.0527 18 30.6738C20.8106 27.0527 22.3968 22.6123 22.4997 18C22.3968 13.3877 20.8106 8.94727 18 5.32619C15.1894 8.94727 13.6032 13.3877 13.5003 18Z" fill="#333333"/>
</symbol>


<symbol id="out" viewBox="0 0 36 36">
<path fill-rule="evenodd" clip-rule="evenodd" d="M21 4.5C21 3.67157 21.6716 3 22.5 3H28.5C29.6935 3 30.8381 3.47411 31.682 4.31802C32.5259 5.16193 33 6.30653 33 7.5V28.5C33 29.6935 32.5259 30.8381 31.682 31.682C30.8381 32.5259 29.6935 33 28.5 33H22.5C21.6716 33 21 32.3284 21 31.5C21 30.6716 21.6716 30 22.5 30H28.5C28.8978 30 29.2794 29.842 29.5607 29.5607C29.842 29.2794 30 28.8978 30 28.5V7.5C30 7.10218 29.842 6.72064 29.5607 6.43934C29.2794 6.15804 28.8978 6 28.5 6H22.5C21.6716 6 21 5.32843 21 4.5Z" fill="#333333"/>
<path fill-rule="evenodd" clip-rule="evenodd" d="M13.9393 9.43934C14.5251 8.85355 15.4749 8.85355 16.0607 9.43934L23.5607 16.9393C24.1464 17.5251 24.1464 18.4749 23.5607 19.0607L16.0607 26.5607C15.4749 27.1464 14.5251 27.1464 13.9393 26.5607C13.3536 25.9749 13.3536 25.0251 13.9393 24.4393L20.3787 18L13.9393 11.5607C13.3536 10.9749 13.3536 10.0251 13.9393 9.43934Z" fill="#333333"/>
<path fill-rule="evenodd" clip-rule="evenodd" d="M3 18C3 17.1716 3.67157 16.5 4.5 16.5H22.5C23.3284 16.5 24 17.1716 24 18C24 18.8284 23.3284 19.5 22.5 19.5H4.5C3.67157 19.5 3 18.8284 3 18Z" fill="#333333"/>
</symbol>


<symbol id="add" viewBox="0 0 36 36">
<path fill-rule="evenodd" clip-rule="evenodd" d="M2.1967 23.1967C3.60322 21.7902 5.51088 21 7.5 21H18C19.9891 21 21.8968 21.7902 23.3033 23.1967C24.7098 24.6032 25.5 26.5109 25.5 28.5V31.5C25.5 32.3284 24.8284 33 24 33C23.1716 33 22.5 32.3284 22.5 31.5V28.5C22.5 27.3065 22.0259 26.1619 21.182 25.318C20.3381 24.4741 19.1935 24 18 24H7.5C6.30653 24 5.16193 24.4741 4.31802 25.318C3.47411 26.1619 3 27.3065 3 28.5V31.5C3 32.3284 2.32843 33 1.5 33C0.671573 33 0 32.3284 0 31.5V28.5C0 26.5109 0.790177 24.6032 2.1967 23.1967Z" fill="#333333"/>
<path fill-rule="evenodd" clip-rule="evenodd" d="M12.75 6C10.2647 6 8.25 8.01472 8.25 10.5C8.25 12.9853 10.2647 15 12.75 15C15.2353 15 17.25 12.9853 17.25 10.5C17.25 8.01472 15.2353 6 12.75 6ZM5.25 10.5C5.25 6.35786 8.60786 3 12.75 3C16.8921 3 20.25 6.35786 20.25 10.5C20.25 14.6421 16.8921 18 12.75 18C8.60786 18 5.25 14.6421 5.25 10.5Z" fill="#333333"/>
<path fill-rule="evenodd" clip-rule="evenodd" d="M30 10.5C30.8284 10.5 31.5 11.1716 31.5 12V21C31.5 21.8284 30.8284 22.5 30 22.5C29.1716 22.5 28.5 21.8284 28.5 21V12C28.5 11.1716 29.1716 10.5 30 10.5Z" fill="#333333"/>
<path fill-rule="evenodd" clip-rule="evenodd" d="M24 16.5C24 15.6716 24.6716 15 25.5 15H34.5C35.3284 15 36 15.6716 36 16.5C36 17.3284 35.3284 18 34.5 18H25.5C24.6716 18 24 17.3284 24 16.5Z" fill="#333333"/>
</symbol>


<symbol id="icon-filter1" viewBox="0 0 16 16">
<path d="M7.33337 2.12005V13.8801C7.33337 14.3067 6.94004 14.6267 6.52671 14.5334C3.54671 13.8667 1.33337 11.1934 1.33337 8.00005C1.33337 4.80672 3.54671 2.13338 6.52671 1.46672C6.62408 1.44555 6.72495 1.44652 6.8219 1.46956C6.91884 1.4926 7.00937 1.53712 7.0868 1.59984C7.16423 1.66255 7.22659 1.74185 7.26926 1.83189C7.31194 1.92193 7.33385 2.02041 7.33337 2.12005ZM8.68671 2.12005V6.66005C8.68671 7.02672 8.98671 7.32672 9.35337 7.32672H13.88C14.3067 7.32672 14.6267 6.93338 14.5334 6.51338C13.9667 4.00672 12 2.03338 9.50004 1.46672C9.08004 1.37338 8.68671 1.69338 8.68671 2.12005ZM8.68671 9.34005V13.8801C8.68671 14.3067 9.08004 14.6267 9.50004 14.5334C12.0067 13.9667 13.9734 11.9867 14.54 9.48005C14.6334 9.06672 14.3067 8.66672 13.8867 8.66672H9.36004C8.98671 8.67338 8.68671 8.97338 8.68671 9.34005Z" fill="#333333"/>
</symbol>

<symbol id="icon-filter2" viewBox="0 0 16 16">
<path d="M8.00008 14.6667C6.45564 14.2778 5.18053 13.3916 4.17475 12.008C3.16897 10.6245 2.6663 9.08848 2.66675 7.40004V3.33337L8.00008 1.33337L13.3334 3.33337V7.40004C13.3334 9.08893 12.8307 10.6252 11.8254 12.0087C10.8201 13.3923 9.54497 14.2783 8.00008 14.6667Z" fill="#333333"/>
</symbol>

<symbol id="icon-filter3" viewBox="0 0 16 16">
<path d="M8.01672 1.59998C-3.04828 1.59998 -0.922526 11.2 4.05522 11.2C5.05272 11.2 5.99197 10.6827 6.59072 9.80348L7.23397 8.85873C7.62547 8.28398 8.40822 8.28398 8.79972 8.85873L9.44297 9.80348C10.0415 10.6827 10.9807 11.2 11.9782 11.2C16.7247 11.2 19.244 1.59998 8.01672 1.59998ZM4.59997 7.70898C3.57347 7.70898 2.90597 7.06748 2.59797 6.68273C2.46722 6.51948 2.46722 6.28048 2.59797 6.11698C2.90597 5.73198 3.57322 5.09073 4.59997 5.09073C5.62672 5.09073 6.29397 5.73223 6.60197 6.11698C6.73272 6.28023 6.73272 6.51923 6.60197 6.68273C6.29397 7.06773 5.62647 7.70898 4.59997 7.70898ZM11.4 7.70898C10.3735 7.70898 9.70597 7.06748 9.39797 6.68273C9.26722 6.51948 9.26722 6.28048 9.39797 6.11698C9.70597 5.73198 10.3732 5.09073 11.4 5.09073C12.4267 5.09073 13.094 5.73223 13.402 6.11698C13.5327 6.28023 13.5327 6.51923 13.402 6.68273C13.094 7.06773 12.4265 7.70898 11.4 7.70898Z" fill="#333333"/>
</symbol>

<symbol id="card__top" viewBox="0 0 14 14">
<g clip-path="url(#clip0_168_801)">
<path fill-rule="evenodd" clip-rule="evenodd" d="M13.8291 3.0876C14.057 3.31541 14.057 3.68475 13.8291 3.91256L8.28748 9.45423C8.05967 9.68203 7.69033 9.68203 7.46252 9.45423L4.95833 6.95004L0.995812 10.9126C0.768006 11.1404 0.39866 11.1404 0.170854 10.9126C-0.0569515 10.6848 -0.0569515 10.3154 0.170854 10.0876L4.54585 5.7126C4.77366 5.4848 5.14301 5.4848 5.37081 5.7126L7.875 8.21679L13.0042 3.0876C13.232 2.8598 13.6013 2.8598 13.8291 3.0876Z" fill="#AFAFAF"/>
<path fill-rule="evenodd" clip-rule="evenodd" d="M9.33331 3.50008C9.33331 3.17792 9.59448 2.91675 9.91665 2.91675H13.4166C13.7388 2.91675 14 3.17792 14 3.50008V7.00008C14 7.32225 13.7388 7.58342 13.4166 7.58342C13.0945 7.58342 12.8333 7.32225 12.8333 7.00008V4.08341H9.91665C9.59448 4.08341 9.33331 3.82225 9.33331 3.50008Z" fill="#AFAFAF"/>
</g>
<defs>
<clipPath id="clip0_168_801">
<rect width="14" height="14" fill="white"/>
</clipPath>
</defs></symbol>

<symbol id="category__icon" viewBox="0 0 16 16">
<path d="M2.66667 8.66659C3.03486 8.66659 3.33333 8.36811 3.33333 7.99992C3.33333 7.63173 3.03486 7.33325 2.66667 7.33325C2.29848 7.33325 2 7.63173 2 7.99992C2 8.36811 2.29848 8.66659 2.66667 8.66659Z" fill="#333333"/>
<path d="M13.3734 7.33325H5.29335C4.94726 7.33325 4.66669 7.61382 4.66669 7.95992V8.03992C4.66669 8.38602 4.94726 8.66659 5.29335 8.66659H13.3734C13.7195 8.66659 14 8.38602 14 8.03992V7.95992C14 7.61382 13.7195 7.33325 13.3734 7.33325Z" fill="#333333"/>
<path d="M13.3733 10.6667H2.62667C2.28057 10.6667 2 10.9473 2 11.2934V11.3734C2 11.7195 2.28057 12.0001 2.62667 12.0001H13.3733C13.7194 12.0001 14 11.7195 14 11.3734V11.2934C14 10.9473 13.7194 10.6667 13.3733 10.6667Z" fill="#333333"/>
<path d="M13.3733 4H2.62667C2.28057 4 2 4.28057 2 4.62667V4.70667C2 5.05277 2.28057 5.33333 2.62667 5.33333H13.3733C13.7194 5.33333 14 5.05277 14 4.70667V4.62667C14 4.28057 13.7194 4 13.3733 4Z" fill="#333333"/>
</symbol>


<symbol id="view" viewBox="0 0 16 16">
<path d="M8.00002 6C7.46959 6 6.96088 6.21071 6.58581 6.58579C6.21073 6.96086 6.00002 7.46957 6.00002 8C6.00002 8.53043 6.21073 9.03914 6.58581 9.41421C6.96088 9.78929 7.46959 10 8.00002 10C8.53045 10 9.03916 9.78929 9.41423 9.41421C9.78931 9.03914 10 8.53043 10 8C10 7.46957 9.78931 6.96086 9.41423 6.58579C9.03916 6.21071 8.53045 6 8.00002 6ZM8.00002 11.3333C7.11597 11.3333 6.26812 10.9821 5.643 10.357C5.01788 9.7319 4.66669 8.88406 4.66669 8C4.66669 7.11595 5.01788 6.2681 5.643 5.64298C6.26812 5.01786 7.11597 4.66667 8.00002 4.66667C8.88408 4.66667 9.73192 5.01786 10.357 5.64298C10.9822 6.2681 11.3334 7.11595 11.3334 8C11.3334 8.88406 10.9822 9.7319 10.357 10.357C9.73192 10.9821 8.88408 11.3333 8.00002 11.3333ZM8.00002 3C4.66669 3 1.82002 5.07333 0.666687 8C1.82002 10.9267 4.66669 13 8.00002 13C11.3334 13 14.18 10.9267 15.3334 8C14.18 5.07333 11.3334 3 8.00002 3Z" fill="#333333"/>
</symbol>


<symbol id="rating" viewBox="0 0 15 15">
<path fill-rule="evenodd" clip-rule="evenodd" d="M1.875 1.25C2.22018 1.25 2.5 1.52982 2.5 1.875V11.875C2.5 12.0408 2.56585 12.1997 2.68306 12.3169C2.80027 12.4342 2.95924 12.5 3.125 12.5H13.125C13.4702 12.5 13.75 12.7798 13.75 13.125C13.75 13.4702 13.4702 13.75 13.125 13.75H3.125C2.62772 13.75 2.15081 13.5525 1.79917 13.2008C1.44754 12.8492 1.25 12.3723 1.25 11.875V1.875C1.25 1.52982 1.52982 1.25 1.875 1.25Z" fill="#333333"/>
<path fill-rule="evenodd" clip-rule="evenodd" d="M13.5669 4.55806C13.811 4.80214 13.811 5.19786 13.5669 5.44194L9.81694 9.19194C9.57286 9.43602 9.17714 9.43602 8.93306 9.19194L6.875 7.13388L4.81694 9.19194C4.57286 9.43602 4.17714 9.43602 3.93306 9.19194C3.68898 8.94786 3.68898 8.55214 3.93306 8.30806L6.43306 5.80806C6.67714 5.56398 7.07286 5.56398 7.31694 5.80806L9.375 7.86612L12.6831 4.55806C12.9271 4.31398 13.3229 4.31398 13.5669 4.55806Z" fill="#333333"/>
<path fill-rule="evenodd" clip-rule="evenodd" d="M10.625 5C10.625 4.65482 10.9048 4.375 11.25 4.375H13.125C13.4702 4.375 13.75 4.65482 13.75 5V6.875C13.75 7.22018 13.4702 7.5 13.125 7.5C12.7798 7.5 12.5 7.22018 12.5 6.875V5.625H11.25C10.9048 5.625 10.625 5.34518 10.625 5Z" fill="#333333"/>
</symbol>

<symbol id="rating1" viewBox="0 0 16 16">
<path fill-rule="evenodd" clip-rule="evenodd" d="M1.875 1.25C2.22018 1.25 2.5 1.52982 2.5 1.875V11.875C2.5 12.0408 2.56585 12.1997 2.68306 12.3169C2.80027 12.4342 2.95924 12.5 3.125 12.5H13.125C13.4702 12.5 13.75 12.7798 13.75 13.125C13.75 13.4702 13.4702 13.75 13.125 13.75H3.125C2.62772 13.75 2.15081 13.5525 1.79917 13.2008C1.44754 12.8492 1.25 12.3723 1.25 11.875V1.875C1.25 1.52982 1.52982 1.25 1.875 1.25Z" fill="white"/>
<path fill-rule="evenodd" clip-rule="evenodd" d="M13.5669 4.55806C13.811 4.80214 13.811 5.19786 13.5669 5.44194L9.81694 9.19194C9.57286 9.43602 9.17714 9.43602 8.93306 9.19194L6.875 7.13388L4.81694 9.19194C4.57286 9.43602 4.17714 9.43602 3.93306 9.19194C3.68898 8.94786 3.68898 8.55214 3.93306 8.30806L6.43306 5.80806C6.67714 5.56398 7.07286 5.56398 7.31694 5.80806L9.375 7.86612L12.6831 4.55806C12.9271 4.31398 13.3229 4.31398 13.5669 4.55806Z" fill="white"/>
<path fill-rule="evenodd" clip-rule="evenodd" d="M10.625 5C10.625 4.65482 10.9048 4.375 11.25 4.375H13.125C13.4702 4.375 13.75 4.65482 13.75 5V6.875C13.75 7.22018 13.4702 7.5 13.125 7.5C12.7798 7.5 12.5 7.22018 12.5 6.875V5.625H11.25C10.9048 5.625 10.625 5.34518 10.625 5Z" fill="white"/>
</symbol>


<symbol id="price" viewBox="0 0 16 16">
<path d="M2 4H14V12H2V4ZM8 6C8.53043 6 9.03914 6.21071 9.41421 6.58579C9.78929 6.96086 10 7.46957 10 8C10 8.53043 9.78929 9.03914 9.41421 9.41421C9.03914 9.78929 8.53043 10 8 10C7.46957 10 6.96086 9.78929 6.58579 9.41421C6.21071 9.03914 6 8.53043 6 8C6 7.46957 6.21071 6.96086 6.58579 6.58579C6.96086 6.21071 7.46957 6 8 6ZM4.66667 5.33333C4.66667 5.68696 4.52619 6.02609 4.27614 6.27614C4.02609 6.52619 3.68696 6.66667 3.33333 6.66667V9.33333C3.68696 9.33333 4.02609 9.47381 4.27614 9.72386C4.52619 9.97391 4.66667 10.313 4.66667 10.6667H11.3333C11.3333 10.313 11.4738 9.97391 11.7239 9.72386C11.9739 9.47381 12.313 9.33333 12.6667 9.33333V6.66667C12.313 6.66667 11.9739 6.52619 11.7239 6.27614C11.4738 6.02609 11.3333 5.68696 11.3333 5.33333H4.66667Z" fill="#333333"/>
</symbol>

<symbol id="arrow_down" viewBox="0 0 16 16">
<path fill-rule="evenodd" clip-rule="evenodd" d="M3.52861 5.52851C3.78896 5.26816 4.21107 5.26816 4.47141 5.52851L8.00001 9.05711L11.5286 5.52851C11.789 5.26816 12.2111 5.26816 12.4714 5.52851C12.7318 5.78886 12.7318 6.21097 12.4714 6.47132L8.47141 10.4713C8.21106 10.7317 7.78895 10.7317 7.52861 10.4713L3.52861 6.47132C3.26826 6.21097 3.26826 5.78886 3.52861 5.52851Z" fill="black"/>
</symbol>

<symbol id="about" viewBox="0 0 16 16">
<path d="M14 3.00001V10.5C13.9996 10.5712 13.984 10.6415 13.9543 10.7061C13.9245 10.7708 13.8813 10.8284 13.8275 10.875C12.8725 11.7019 11.9594 12 11.0887 12C9.90687 12 8.80312 11.4538 7.77625 10.9469C6.11687 10.125 4.67438 9.41314 3 10.7356V13.5C3 13.6326 2.94732 13.7598 2.85355 13.8536C2.75979 13.9473 2.63261 14 2.5 14C2.36739 14 2.24021 13.9473 2.14645 13.8536C2.05268 13.7598 2 13.6326 2 13.5V3.00001C2.00048 2.92878 2.01617 2.85847 2.04603 2.7938C2.07589 2.72913 2.11922 2.67158 2.17313 2.62501C4.42313 0.676263 6.4425 1.67439 8.2225 2.55501C9.9375 3.40376 11.4244 4.13751 13.1725 2.62501C13.2448 2.56238 13.3335 2.52178 13.4281 2.50802C13.5227 2.49427 13.6193 2.50793 13.7064 2.5474C13.7935 2.58687 13.8674 2.65049 13.9195 2.73071C13.9715 2.81093 13.9995 2.90439 14 3.00001Z" fill="#333333"/>
</symbol>

<symbol id="like" viewBox="0 0 16 16">
<path d="M13.8933 3.07333C13.5528 2.73267 13.1485 2.46243 12.7036 2.27805C12.2586 2.09368 11.7817 1.99878 11.3 1.99878C10.8183 1.99878 10.3414 2.09368 9.89643 2.27805C9.45145 2.46243 9.04717 2.73267 8.70666 3.07333L8 3.78L7.29333 3.07333C6.60554 2.38553 5.67269 1.99914 4.7 1.99914C3.72731 1.99914 2.79446 2.38553 2.10666 3.07333C1.41887 3.76112 1.03247 4.69397 1.03247 5.66666C1.03247 6.63935 1.41887 7.5722 2.10666 8.26L2.81333 8.96666L8 14.1533L13.1867 8.96666L13.8933 8.26C14.234 7.91949 14.5042 7.51521 14.6886 7.07023C14.873 6.62526 14.9679 6.14832 14.9679 5.66666C14.9679 5.185 14.873 4.70807 14.6886 4.26309C14.5042 3.81812 14.234 3.41383 13.8933 3.07333Z" fill="#5C5C5C"/>
</symbol>

<symbol id="bag" viewBox="0 0 16 16">
<path d="M14.08 14.7199C14.7869 14.7199 15.36 14.1468 15.36 13.4399C15.36 12.733 14.7869 12.1599 14.08 12.1599C13.3731 12.1599 12.8 12.733 12.8 13.4399C12.8 14.1468 13.3731 14.7199 14.08 14.7199Z" fill="white"/>
<path d="M4.80002 14.7199C5.50694 14.7199 6.08002 14.1468 6.08002 13.4399C6.08002 12.733 5.50694 12.1599 4.80002 12.1599C4.0931 12.1599 3.52002 12.733 3.52002 13.4399C3.52002 14.1468 4.0931 14.7199 4.80002 14.7199Z" fill="white"/>
<path d="M15.04 10.5599H5.04672L5.26016 10.2137C5.35168 10.0652 5.37856 9.88568 5.33472 9.71672L5.1264 8.9148L14.401 8.43288C14.7526 8.41496 15.04 8.11192 15.04 7.75992V3.51992C15.04 3.16792 14.752 2.87992 14.4 2.87992H3.55808L3.43296 2.39896C3.39731 2.26179 3.31714 2.14032 3.20502 2.05363C3.0929 1.96693 2.95517 1.9199 2.81344 1.91992H0.64C0.470261 1.91992 0.307475 1.98735 0.187452 2.10737C0.0674284 2.2274 0 2.39018 0 2.55992C0 2.72966 0.0674284 2.89245 0.187452 3.01247C0.307475 3.13249 0.470261 3.19992 0.64 3.19992H2.31872L4.02752 9.77432L3.35552 10.8639C3.29575 10.9609 3.26296 11.072 3.26054 11.1859C3.25812 11.2998 3.28616 11.4122 3.34176 11.5116C3.39714 11.6111 3.4781 11.694 3.57628 11.7518C3.67445 11.8095 3.78627 11.8399 3.90016 11.8399H15.04C15.2097 11.8399 15.3725 11.7725 15.4925 11.6525C15.6126 11.5324 15.68 11.3697 15.68 11.1999C15.68 11.0302 15.6126 10.8674 15.4925 10.7474C15.3725 10.6273 15.2097 10.5599 15.04 10.5599Z" fill="white"/>
</symbol>

<symbol id="left_arrow" viewBox="0 0 22 38">
<g clip-path="url(#clip0_170_5762)">
<path fill-rule="evenodd" clip-rule="evenodd" d="M20.5523 1.11439C21.5937 2.15579 21.5937 3.84423 20.5523 4.88563L6.4379 19L20.5523 33.1144C21.5937 34.1558 21.5937 35.8442 20.5523 36.8856C19.5109 37.927 17.8224 37.927 16.781 36.8856L0.781049 20.8856C-0.26035 19.8442 -0.26035 18.1558 0.781049 17.1144L16.781 1.11439C17.8224 0.0729939 19.5109 0.0729939 20.5523 1.11439Z" fill="white"/>
</g>
<defs>
<clipPath id="clip0_170_5762">
<rect width="22" height="38" fill="white"/>
</clipPath>
</defs>
</symbol>

<symbol id="right_arrow" viewBox="0 0 22 38">
<g clip-path="url(#clip0_170_5765)">
<path fill-rule="evenodd" clip-rule="evenodd" d="M1.11422 36.8856C0.0728208 35.8442 0.072821 34.1558 1.11422 33.1144L15.2286 19L1.11422 4.88564C0.0728236 3.84424 0.0728238 2.1558 1.11422 1.1144C2.15562 0.073004 3.84406 0.0730041 4.88546 1.11441L20.8855 17.1144C21.9269 18.1558 21.9269 19.8442 20.8855 20.8856L4.88545 36.8856C3.84406 37.927 2.15562 37.927 1.11422 36.8856Z" fill="white"/>
</g>
<defs>
<clipPath id="clip0_170_5765">
<rect width="22" height="38" fill="white" transform="translate(22 38) rotate(-180)"/>
</clipPath>
</defs>
</symbol>

<symbol id="view" viewBox="0 0 16 16">
<path d="M8.00002 6C7.46959 6 6.96088 6.21071 6.58581 6.58579C6.21073 6.96086 6.00002 7.46957 6.00002 8C6.00002 8.53043 6.21073 9.03914 6.58581 9.41421C6.96088 9.78929 7.46959 10 8.00002 10C8.53045 10 9.03916 9.78929 9.41423 9.41421C9.78931 9.03914 10 8.53043 10 8C10 7.46957 9.78931 6.96086 9.41423 6.58579C9.03916 6.21071 8.53045 6 8.00002 6ZM8.00002 11.3333C7.11597 11.3333 6.26812 10.9821 5.643 10.357C5.01788 9.7319 4.66669 8.88406 4.66669 8C4.66669 7.11595 5.01788 6.2681 5.643 5.64298C6.26812 5.01786 7.11597 4.66667 8.00002 4.66667C8.88408 4.66667 9.73192 5.01786 10.357 5.64298C10.9822 6.2681 11.3334 7.11595 11.3334 8C11.3334 8.88406 10.9822 9.7319 10.357 10.357C9.73192 10.9821 8.88408 11.3333 8.00002 11.3333ZM8.00002 3C4.66669 3 1.82002 5.07333 0.666687 8C1.82002 10.9267 4.66669 13 8.00002 13C11.3334 13 14.18 10.9267 15.3334 8C14.18 5.07333 11.3334 3 8.00002 3Z" fill="#333333"/>
</symbol>
<symbol id="view" viewBox="0 0 16 16">
<path d="M8.00002 6C7.46959 6 6.96088 6.21071 6.58581 6.58579C6.21073 6.96086 6.00002 7.46957 6.00002 8C6.00002 8.53043 6.21073 9.03914 6.58581 9.41421C6.96088 9.78929 7.46959 10 8.00002 10C8.53045 10 9.03916 9.78929 9.41423 9.41421C9.78931 9.03914 10 8.53043 10 8C10 7.46957 9.78931 6.96086 9.41423 6.58579C9.03916 6.21071 8.53045 6 8.00002 6ZM8.00002 11.3333C7.11597 11.3333 6.26812 10.9821 5.643 10.357C5.01788 9.7319 4.66669 8.88406 4.66669 8C4.66669 7.11595 5.01788 6.2681 5.643 5.64298C6.26812 5.01786 7.11597 4.66667 8.00002 4.66667C8.88408 4.66667 9.73192 5.01786 10.357 5.64298C10.9822 6.2681 11.3334 7.11595 11.3334 8C11.3334 8.88406 10.9822 9.7319 10.357 10.357C9.73192 10.9821 8.88408 11.3333 8.00002 11.3333ZM8.00002 3C4.66669 3 1.82002 5.07333 0.666687 8C1.82002 10.9267 4.66669 13 8.00002 13C11.3334 13 14.18 10.9267 15.3334 8C14.18 5.07333 11.3334 3 8.00002 3Z" fill="#333333"/>
</symbol>

</defs>
</svg>




